<svg version="1" xmlns="http://www.w3.org/2000/svg" width="192" height="192" viewBox="0 0 144 144"><path d="M52.5 36.1c-3.3.5-7.1 1.1-8.5 1.3-1.4.3-4 .8-5.8 1.1-9.9 1.8-26.2 11-26.2 14.7 0 .9-.5 1.8-1.1 2-.6.2-1.2 2.4-1.3 4.8-.1 4.5-.1 4.5-4.6 5.6-4.4 1-4.5 1.1-4.5 5.1-.1 5.4 1.1 8.7 2.9 8 1-.4 1.6.6 2 3.8.4 2.4 1.3 4.6 2.1 4.9 1.1.4 1.4 2 1.1 6.8-.3 6.2.6 10.7 2.5 11.9 3.5 2.1 82 1.8 112.9-.5 5.3-.4 8-1.5 8.1-3.4.5-4.9.4-11.8 0-12.7-1.1-2.1-.5-5 1.1-6.5 1.4-1.3 2.5-5.3 1.8-7-.3-.8-.9-3.3-1.6-6.4-.6-2.3-.4-2.7.7-2.1 1.8 1.1 8.8 1.5 9.4.6.2-.5-1.8-1.8-4.6-3.1-3.3-1.6-4.5-2.6-3.7-3.2 1.1-.6-2.5-1.3-5.3-1-.4.1-.9-1.9-1.2-4.4-.3-3.4-1.3-5.5-3.8-8-1.8-1.9-3.9-3.4-4.6-3.4-.7 0-1.3-.5-1.3-1 0-.6-.8-1-1.8-1s-2.2-.4-2.8-.8c-1.3-1.1-7-2.9-13.4-4.1-3-.6-6.8-1.3-8.5-1.7-5.1-1-33.7-1.2-40-.3z"/></svg>